<?xml version="1.0" encoding="utf-8"?>
<svg version="1.1" xmlns:xlink="http://www.w3.org/1999/xlink" width="9px" height="12px" xmlns="http://www.w3.org/2000/svg">
  <g transform="matrix(1 0 0 1 0 -1 )">
    <path d="M 3.48179512023926 7.30768384431538  C 3.48179512023926 7.30768384431538  1.53813414573669 8.49084693507144  3.26618556976318 11.6543498792146  C 3.26618556976318 11.6543498792146  1.53936395645142 11.2235027112459  0.647003602981567 9.78598865709807  C -0.0997384786605835 8.58305077803762  -0.471623754501343 6.43514126225522  1.06787209510803 4.57909614161441  C 2.83506932258606 2.44858766856946  3.42215430736542 2.51593223371004  4.13067283630371 0  C 4.13067283630371 0  7.08976700305939 1.94180849978798  6.01540946960449 6.08237336811266  C 6.01540946960449 6.08237336811266  7.15770928859711 5.88598838605379  7.87360610961914 3.66858733327765  C 7.87360610961914 3.66858733327765  11.0741340637207 7.73310741625334  6.68529510498047 12  C 6.68529510498047 12  3.35431509912014 9.7551414088199  3.48179512023926 7.30768384431538  Z " fill-rule="nonzero" fill="#ff5961" stroke="none" transform="matrix(1 0 0 1 0 1 )" />
  </g>
</svg>