<?xml version="1.0" encoding="utf-8"?>
<svg version="1.1" xmlns:xlink="http://www.w3.org/1999/xlink" width="222px" height="114px" xmlns="http://www.w3.org/2000/svg">
  <defs>
    <linearGradient gradientUnits="userSpaceOnUse" x1="262" y1="562" x2="422.966950067603" y2="574.734734549554" id="LinearGradient1387">
      <stop id="Stop1388" stop-color="#ffffff" stop-opacity="0.0509803921568627" offset="0" />
      <stop id="Stop1389" stop-color="#ffffff" stop-opacity="0.6" offset="1" />
    </linearGradient>
    <filter x="234px" y="534px" width="222px" height="114px" filterUnits="userSpaceOnUse" id="filter1390">
      <feOffset dx="4" dy="4" in="SourceAlpha" result="shadowOffsetInner" />
      <feGaussianBlur stdDeviation="16" in="shadowOffsetInner" result="shadowGaussian" />
      <feComposite in2="shadowGaussian" operator="atop" in="SourceAlpha" result="shadowComposite" />
      <feColorMatrix type="matrix" values="0 0 0 0 0.682352941176471  0 0 0 0 0.682352941176471  0 0 0 0 0.752941176470588  0 0 0 0.2 0  " in="shadowComposite" />
    </filter>
    <g id="widget1391">
      <path d="M 262.5 587  A 24.5 24.5 0 0 1 287 562.5 L 395 562.5  A 24.5 24.5 0 0 1 419.5 587 A 24.5 24.5 0 0 1 395 611.5 L 287 611.5  A 24.5 24.5 0 0 1 262.5 587 Z " fill-rule="nonzero" fill="#f0f0f3" stroke="none" />
      <path d="M 262.5 587  A 24.5 24.5 0 0 1 287 562.5 L 395 562.5  A 24.5 24.5 0 0 1 419.5 587 A 24.5 24.5 0 0 1 395 611.5 L 287 611.5  A 24.5 24.5 0 0 1 262.5 587 Z " stroke-width="1" stroke="url(#LinearGradient1387)" fill="none" />
    </g>
  </defs>
  <g transform="matrix(1 0 0 1 -234 -534 )">
    <use xlink:href="#widget1391" filter="url(#filter1390)" />
    <use xlink:href="#widget1391" />
  </g>
</svg>