<?xml version="1.0" encoding="utf-8"?>
<svg version="1.1" xmlns:xlink="http://www.w3.org/1999/xlink" width="379px" height="114px" xmlns="http://www.w3.org/2000/svg">
  <defs>
    <linearGradient gradientUnits="userSpaceOnUse" x1="104" y1="632" x2="418.999992514825" y2="682.000028208828" id="LinearGradient1406">
      <stop id="Stop1407" stop-color="#ffffff" stop-opacity="0.0509803921568627" offset="0" />
      <stop id="Stop1408" stop-color="#ffffff" stop-opacity="0.6" offset="1" />
    </linearGradient>
    <filter x="76px" y="604px" width="379px" height="114px" filterUnits="userSpaceOnUse" id="filter1409">
      <feOffset dx="4" dy="4" in="SourceAlpha" result="shadowOffsetInner" />
      <feGaussianBlur stdDeviation="16" in="shadowOffsetInner" result="shadowGaussian" />
      <feComposite in2="shadowGaussian" operator="atop" in="SourceAlpha" result="shadowComposite" />
      <feColorMatrix type="matrix" values="0 0 0 0 0.682352941176471  0 0 0 0 0.682352941176471  0 0 0 0 0.752941176470588  0 0 0 0.2 0  " in="shadowComposite" />
    </filter>
    <g id="widget1410">
      <path d="M 104.5 657  A 24.5 24.5 0 0 1 129 632.5 L 394 632.5  A 24.5 24.5 0 0 1 418.5 657 A 24.5 24.5 0 0 1 394 681.5 L 129 681.5  A 24.5 24.5 0 0 1 104.5 657 Z " fill-rule="nonzero" fill="#f0f0f3" stroke="none" />
      <path d="M 104.5 657  A 24.5 24.5 0 0 1 129 632.5 L 394 632.5  A 24.5 24.5 0 0 1 418.5 657 A 24.5 24.5 0 0 1 394 681.5 L 129 681.5  A 24.5 24.5 0 0 1 104.5 657 Z " stroke-width="1" stroke="url(#LinearGradient1406)" fill="none" />
    </g>
  </defs>
  <g transform="matrix(1 0 0 1 -76 -604 )">
    <use xlink:href="#widget1410" filter="url(#filter1409)" />
    <use xlink:href="#widget1410" />
  </g>
</svg>