<?xml version="1.0" encoding="utf-8"?>
<svg version="1.1" xmlns:xlink="http://www.w3.org/1999/xlink" width="11px" height="12px" xmlns="http://www.w3.org/2000/svg">
  <g transform="matrix(1 0 0 1 0 -1 )">
    <path d="M 10.9824024764708 6.7117124725924  C 10.9095911308506 6.439814147478  10.6282081906033 6.27969559970146  10.3552567249167 6.35098601466508  C 10.3552567249167 6.35098601466508  8.16279779463682 6.9355055007561  8.16279779463682 6.9355055007561  L 7.31768623707019 6.45020200687968  L 7.31768623707019 5.53948795409714  L 8.15314333849963 5.06190424176896  C 8.15314333849963 5.06190424176896  10.3552051053026 5.64927289249898  10.3552051053026 5.64927289249898  C 10.3994696130899 5.66103373807397  10.4439424047793 5.66683668017508  10.4880247548899 5.66683668017508  C 10.7142135406153 5.66683668017508  10.9211974722597 5.51645828537841  10.9823246499757 5.28867608579274  C 11.0555783794116 5.01646689914729  10.8934574142515 4.73671930802152  10.620037550201 4.66387459775511  C 10.620037550201 4.66387459775511  9.41282075273093 4.34187630351193  9.41282075273093 4.34187630351193  C 9.41282075273093 4.34187630351193  10.5257054849053 3.70583192010428  10.5257054849053 3.70583192010428  C 10.7709948679816 3.56558253930744  10.8558801964527 3.25381677251995  10.7149676088726 3.00953311989194  C 10.5735866105201 2.76524946726392  10.2610288915341 2.68061790335793  10.0156354006303 2.82120404875466  C 10.0156354006303 2.82120404875466  8.90046114003253 3.45875068663102  8.90046114003253 3.45875068663102  C 8.90046114003253 3.45875068663102  9.22384452201104 2.25657989828967  9.22384452201104 2.25657989828967  C 9.29702018298485 1.9844484332032  9.13513360933944 1.70464911005439  8.86158362911733 1.63180439978797  C 8.58985522566291 1.56085074942424  8.30769142087067 1.72045117406164  8.23441167068217 1.99240130531374  C 8.23441167068217 1.99240130531374  7.64682083821012 4.17504838533502  7.64682083821012 4.17504838533502  L 6.80613347864796 4.65566269495611  L 6.00918977131717 4.19696418503601  L 6.00918977131717 3.23449162557202  C 6.00918977131717 3.23449162557202  7.62079819950786 1.63019828599505  7.62079819950786 1.63019828599505  C 7.8208602511121 1.43093744042006  7.8208602511121 1.10818766072173  7.62079819950786 0.908900912077894  C 7.42068410639842 0.709665969571754  7.09654584960615 0.709665969571754  6.89627561957254 0.908900912077894  C 6.89627561957254 0.908900912077894  6.00918977131717 1.79194885680958  6.00918977131717 1.79194885680958  C 6.00918977131717 1.79194885680958  6.00918977131717 0.510016577964062  6.00918977131717 0.510016577964062  C 6.00921579395711 0.228378007226474  5.77974810611968 0  5.49680395173775 0  C 5.21391183886104 0  4.98447014884642 0.228352091805186  4.98447014884642 0.510016577964062  C 4.98447014884642 0.510016577964062  4.98447014884642 1.7856279645035  4.98447014884642 1.7856279645035  C 4.98447014884642 1.7856279645035  4.10383794357853 0.908900912077894  4.10383794357853 0.908900912077894  C 3.9036978297165 0.709665969571754  3.57948170920339 0.709665969571754  3.37928955383615 0.908900912077894  C 3.17914943997411 1.10816175765288  3.17914943997411 1.43091153735121  3.37928955383615 1.63019828599505  C 3.37928955383615 1.63019828599505  4.98447014884642 3.22809306111672  4.98447014884642 3.22809306111672  L 4.98447014884642 4.20066833623358  L 4.19356395099848 4.65488557818581  L 3.35287659143631 4.17471160838269  C 3.35287659143631 4.17471160838269  2.76570209100588 1.99242719603014  2.76570209100588 1.99242719603014  C 2.69255245078467 1.72047706477805  2.41171616969612 1.56043625708915  2.13855653798872 1.63183029050438  C 1.86516270709934 1.70467500077079  1.70291147686496 1.98447432391961  1.77616520630086 2.25660578900608  C 1.77616520630086 2.25660578900608  2.09952257993532 3.45856925397712  2.09952257993532 3.45856925397712  C 2.09952257993532 3.45856925397712  0.984400336025639 2.82120404875466  0.984400336025639 2.82120404875466  C 0.738564479919032 2.68059200028908  0.425642259451154 2.7650421685985  0.284963871053049 3.00966257347397  C 0.144155378891938 3.25399803223967  0.22906722445811 3.56555684623009  0.474434682200777 3.70580622702693  C 0.474434682200777 3.70580622702693  1.58721468611954 4.34185021515647  1.58721468611954 4.34185021515647  C 1.58721468611954 4.34185021515647  0.379972500733504 4.66384890467776  0.379972500733504 4.66384890467776  C 0.106552636682963 4.73669361494417  -0.0556464419202363 5.01644120606994  0.017581260558783 5.28865039271539  C 0.0788645751989575 5.51643259230106  0.285796584770525 5.66681059181961  0.51201137884003 5.66681059181961  C 0.556067705095827 5.66681059181961  0.600566350022298 5.66100804499662  0.644960970879029 5.64924719942163  C 0.644960970879029 5.64924719942163  2.84730912727188 5.06167102768225  2.84730912727188 5.06167102768225  L 3.68182893563099 5.53863296753858  L 3.68268780659524 6.45017631380233  L 2.83731636412519 6.93636009203656  C 2.83731636412519 6.93636009203656  0.644960970879029 6.35096032158773  0.644960970879029 6.35096032158773  C 0.373466791423694 6.28003258046907  0.0909130584567674 6.43981456746099  0.017581260558783 6.7116610864377  C -0.0556464419202363 6.98376663610288  0.106552636682963 7.26359179438212  0.379972500733504 7.33604792773473  C 0.379972500733504 7.33604792773473  1.58279088518903 7.65719163069746  1.58279088518903 7.65719163069746  C 1.58279088518903 7.65719163069746  0.473159578463402 8.29486772215585  0.473159578463402 8.29486772215585  C 0.228208477579472 8.43581653522132  0.144155354074816 8.74747860326634  0.285822593114564 8.99134775738304  C 0.380727158397457 9.15548149699859  0.552892946822268 9.24635589813578  0.729768820294724 9.24635589813578  C 0.816606362864662 9.24635589813578  0.904745036128857 9.22485489340469  0.985493282086247 9.17781151110474  C 0.985493282086247 9.17781151110474  2.10074556771613 8.5371305154308  2.10074556771613 8.5371305154308  C 2.10074556771613 8.5371305154308  1.77616520630086 9.74370509722985  1.77616520630086 9.74370509722985  C 1.70291147686496 10.016276951544  1.86516270709934 10.2952218872277  2.13855653798872 10.3685069805456  C 2.18282104577602 10.380449160727  2.22729363892849 10.3860960660209  2.27137598903903 10.3860960660209  C 2.49748670009813 10.3860960660209  2.70441877636571 10.2354845312522  2.76570209100588 10.0075469132535  C 2.76570209100588 10.0075469132535  3.3557911142646 7.81585942750817  3.3557911142646 7.81585942750817  L 4.1950732291007 7.33379405193401  L 4.98447014884642 7.78723417711595  L 4.98447014884642 8.77226960655202  C 4.98447014884642 8.77226960655202  3.37928955383615 10.3702161631065  3.37928955383615 10.3702161631065  C 3.17914943997411 10.5694252025438  3.17914943997411 10.8921233860959  3.37928955383615 11.0914619532299  C 3.47937262114347 11.1910923760174  3.61024060881292 11.2404667812885  3.74155084380381 11.2404667812885  C 3.87241868877481 11.2404667812885  4.00375487627121 11.1910923760174  4.10383794357853 11.0914619532299  C 4.10383794357853 11.0914619532299  4.98447014884642 10.2147864845981  4.98447014884642 10.2147864845981  C 4.98447014884642 10.2147864845981  4.98447014884642 11.4899576301391  4.98447014884642 11.4899576301391  C 4.98447014884642 11.7721143116634  5.21391183886104 12  5.49680395173775 12  C 5.77974810611968 12  6.00921558112423 11.7720625055257  6.00921558112423 11.4899576301391  C 6.00921558112423 11.4899576301391  6.00921558112423 10.2084138108592  6.00921558112423 10.2084138108592  C 6.00921558112423 10.2084138108592  6.89630182645356 11.0914619532299  6.89630182645356 11.0914619532299  C 6.99635887300828 11.1910923760174  7.12722646360377 11.2404667812885  7.25856271934726 11.2404667812885  C 7.38989897509076 11.2404667812885  7.52076735983416 11.1910923760174  7.62082440638888 11.0914619532299  C 7.82088645799311 10.8921752045861  7.82088645799311 10.5694770086815  7.62082440638888 10.3702161631065  C 7.62082440638888 10.3702161631065  6.00921558112423 8.76589693281313  6.00921558112423 8.76589693281313  L 6.00921558112423 7.79117193767834  L 6.80537903813383 7.33374187522309  L 7.64442648226263 7.81580725079724  C 7.64442648226263 7.81580725079724  8.23451570405833 10.0074955270988  8.23451570405833 10.0074955270988  C 8.29572095023642 10.2354331450975  8.50265309475109 10.38604388931  8.72873777264903 10.38604388931  C 8.7726639858354 10.38604388931  8.81726664862733 10.3803969840161  8.86163524873146 10.3684548038347  C 9.13518522895357 10.2951697105168  9.29704657599429 10.0162255653893  9.22389693577307 9.74365371107515  C 9.22389693577307 9.74365371107515  8.89895225900427 8.53707833871988  8.89895225900427 8.53707833871988  C 8.89895225900427 8.53707833871988  10.0146204796018 9.17776012495005  10.0146204796018 9.17776012495005  C 10.0953947525161 9.22475169802419  10.183507479479 9.24630451198108  10.2703710490059 9.24630451198108  C 10.4472469224783 9.24630451198108  10.6193604088181 9.15543011084389  10.7142909948536 8.99129637122834  C 10.8559322131408 8.74742721711164  10.7719309946472 8.43581616464809  10.5269538854192 8.29481554544493  C 10.5269538854192 8.29481554544493  9.41732277723054 7.65724301685215  9.41732277723054 7.65724301685215  C 9.41732277723054 7.65724301685215  10.6201153766961 7.33607322553397  10.6201153766961 7.33607322553397  C 10.8935352407467 7.26361709218136  11.0556562059067 6.98376621611989  10.9824024764708 6.7117124725924  Z M 6.29296661459944 5.53850331631749  L 6.29296661459944 6.45020200687968  L 5.50000476488746 6.90610313359359  L 4.70761509874435 6.45017631380233  L 4.70673041797304 5.53782976241282  L 5.50000476488746 5.0822397195739  L 6.29296661459944 5.53850331631749  Z " fill-rule="nonzero" fill="#a3adb2" stroke="none" transform="matrix(1 0 0 1 0 1 )" />
  </g>
</svg>