<?xml version="1.0" encoding="utf-8"?>
<svg version="1.1" xmlns:xlink="http://www.w3.org/1999/xlink" width="9px" height="13px" xmlns="http://www.w3.org/2000/svg">
  <g transform="matrix(1 0 0 1 -3 -1 )">
    <path d="M 9 4.55  C 9 2.0345000743866  6.98785706928798 0  4.5 0  C 2.01214293071202 0  0 2.0345000743866  0 4.55  C 0 7.9625  4.5 13  4.5 13  C 4.5 13  9 7.9625  9 4.55  Z M 6.10714285714286 4.55  C 6.10714285714286 5.44699999690056  5.38714285407747 6.175  4.5 6.175  C 3.61285714592252 6.175  2.89285714285714 5.44699999690056  2.89285714285714 4.55  C 2.89285714285714 3.65300000309944  3.61285714592252 2.925  4.5 2.925  C 5.38714285407747 2.925  6.10714285714286 3.65300000309944  6.10714285714286 4.55  Z " fill-rule="nonzero" fill="#7b868c" stroke="none" transform="matrix(1 0 0 1 3 1 )" />
  </g>
</svg>