<?xml version="1.0" encoding="utf-8"?>
<svg version="1.1" xmlns:xlink="http://www.w3.org/1999/xlink" width="5px" height="8px" xmlns="http://www.w3.org/2000/svg">
  <defs>
    <mask fill="white" id="clip1441">
      <path d="M 4.04858307932048 8  L 5 7.06000010172526  L 1.90958163426576 4  L 5 0.93999989827474  L 4.04858307932048 0  L 0 4  L 4.04858307932048 8  Z " fill-rule="evenodd" />
    </mask>
  </defs>
  <g transform="matrix(1 0 0 1 -411 -590 )">
    <path d="M 4.04858307932048 8  L 5 7.06000010172526  L 1.90958163426576 4  L 5 0.93999989827474  L 4.04858307932048 0  L 0 4  L 4.04858307932048 8  Z " fill-rule="nonzero" fill="#ffffff" stroke="none" fill-opacity="0" transform="matrix(1 0 0 1 411 590 )" />
    <path d="M 4.04858307932048 8  L 5 7.06000010172526  L 1.90958163426576 4  L 5 0.93999989827474  L 4.04858307932048 0  L 0 4  L 4.04858307932048 8  Z " stroke-width="4" stroke="#c3c9cd" fill="none" transform="matrix(1 0 0 1 411 590 )" mask="url(#clip1441)" />
  </g>
</svg>