<?xml version="1.0" encoding="utf-8"?>
<svg version="1.1" xmlns:xlink="http://www.w3.org/1999/xlink" width="12px" height="18px" xmlns="http://www.w3.org/2000/svg">
  <defs>
    <mask fill="white" id="clip1437">
      <path d="M 5.5 11.3333333333333  L 0 11.3333333333333  L 0 6  L 11 6  L 11 0  L 0 0  L 11 11.3333333333333  L 5.5 11.3333333333333  Z M 5.5 11.3333333333333  L 0 11.3333333333333  L 5.5 17  L 5.5 11.3333333333333  Z " fill-rule="evenodd" />
    </mask>
  </defs>
  <g transform="matrix(1 0 0 1 -4 -2 )">
    <path d="M 5.5 11.3333333333333  L 0 11.3333333333333  L 0 6  L 11 6  L 11 0  L 0 0  L 11 11.3333333333333  L 5.5 11.3333333333333  Z M 5.5 11.3333333333333  L 0 11.3333333333333  L 5.5 17  L 5.5 11.3333333333333  Z " fill-rule="nonzero" fill="#ffffff" stroke="none" fill-opacity="0" transform="matrix(1 0 0 1 4 2 )" />
    <path d="M 5.5 11.3333333333333  L 0 11.3333333333333  L 0 6  L 11 6  L 11 0  L 0 0  L 11 11.3333333333333  L 5.5 11.3333333333333  Z " stroke-width="2" stroke="#fb7575" fill="none" transform="matrix(1 0 0 1 4 2 )" mask="url(#clip1437)" />
    <path d="M 5.5 11.3333333333333  L 0 11.3333333333333  L 5.5 17  L 5.5 11.3333333333333  Z " stroke-width="2" stroke="#fb7575" fill="none" transform="matrix(1 0 0 1 4 2 )" mask="url(#clip1437)" />
    <path d="M 0 11.3333333333333  L 5.5 11.3333333333333  " stroke-width="1" stroke="#fb7575" fill="none" transform="matrix(1 0 0 1 4 2 )" mask="url(#clip1437)" />
  </g>
</svg>