<?xml version="1.0" encoding="utf-8"?>
<svg version="1.1" xmlns:xlink="http://www.w3.org/1999/xlink" width="13px" height="13px" xmlns="http://www.w3.org/2000/svg">
  <g transform="matrix(1 0 0 1 -1 -1 )">
    <path d="M 5.2 11.7  C 5.2 10.9849999845028  4.61500001549721 10.4  3.9 10.4  C 3.18499998450279 10.4  2.60650014877319 10.9849999845028  2.60650014877319 11.7  C 2.60650014877319 12.4150000154972  3.18499998450279 13  3.9 13  C 4.61500001549721 13  5.2 12.4150000154972  5.2 11.7  Z M 2.12549998760223 0  L 0 0  L 0 1.3  L 1.3 1.3  L 3.63999993801117 6.23350009918213  C 3.63999993801117 6.23350009918213  2.7625 7.82599997520447  2.7625 7.82599997520447  C 2.65850000232458 8.00799997597933  2.6 8.2225000038743  2.6 8.45  C 2.6 9.16500001549721  3.18499998450279 9.75  3.9 9.75  C 3.9 9.75  11.7 9.75  11.7 9.75  L 11.7 8.45  C 11.7 8.45  4.17300004959106 8.45  4.17300004959106 8.45  C 4.08200004920363 8.45  4.01050004959107 8.37850000038743  4.01050004959107 8.2875  C 4.01050004959107 8.2875  4.02999987602234 8.2095000743866  4.02999987602234 8.2095000743866  L 4.61500024795532 7.15  C 4.61500024795532 7.15  9.45750012397766 7.15  9.45750012397766 7.15  C 9.94500012397766 7.15  10.3739995017648 6.88350017666817  10.5949995040894 6.48050017356873  C 10.5949995040894 6.48050017356873  12.9219994544983 2.26200001239777  12.9219994544983 2.26200001239777  C 12.973999453336 2.17100001201034  13 2.06050000116229  13 1.95  C 13 1.5924999922514  12.7075000077486 1.3  12.35 1.3  C 12.35 1.3  2.73650002479553 1.3  2.73650002479553 1.3  L 2.12549998760223 0  Z M 11.7 11.7  C 11.7 10.9849999845028  11.1150000154972 10.4  10.4 10.4  C 9.68499998450279 10.4  9.10650014877319 10.9849999845028  9.10650014877319 11.7  C 9.10650014877319 12.4150000154972  9.68499998450279 13  10.4 13  C 11.1150000154972 13  11.7 12.4150000154972  11.7 11.7  Z " fill-rule="nonzero" fill="#7b868c" stroke="none" transform="matrix(1 0 0 1 1 1 )" />
  </g>
</svg>