<?xml version="1.0" encoding="utf-8"?>
<svg version="1.1" xmlns:xlink="http://www.w3.org/1999/xlink" width="15px" height="11px" xmlns="http://www.w3.org/2000/svg">
  <g transform="matrix(1 0 0 1 -641 -159 )">
    <path d="M 1.65292463097856 4.67027807235718  C 3.23043168077185 3.13858509063721  5.32382355262561 2.28447151184082  7.50041002900151 2.28447723388672  C 9.67678332761439 2.28457450866699  11.7699351995577 3.13868570327759  13.3472407333912 4.67027807235718  C 13.4660157327988 4.78852272033691  13.6558652246334 4.7870306968689  13.7728452392881 4.6669340133667  C 13.7728452392881 4.6669340133667  14.9082290721478 3.49660444259644  14.9082290721478 3.49660444259644  C 14.9674617031047 3.43569159507751  15.0004860639586 3.35318160057068  14.9999944023345 3.26733255386353  C 14.9995027407103 3.18148350715637  14.9655351732114 3.09937381744385  14.9056093646706 3.03917264938355  C 10.765686011639 -1.01305770874023  4.23447887168135 -1.01305770874023  0.0945555186498356 3.03917264938355  C 0.0345858763061453 3.09932899475098  0.000559834306178389 3.18141388893127  0 3.26726293563843  C -0.000546141388056629 3.35311198234558  0.0324195250737632 3.4356472492218  0.0916090255803053 3.49660444259644  C 0.0916090255803053 3.49660444259644  1.22731965860957 4.6669340133667  1.22731965860957 4.6669340133667  C 1.34422527095967 4.78721237182617  1.5342212350428 4.78870534896851  1.65292463097856 4.67027807235718  Z M 4.26744890310945 7.36571407318115  C 5.15323656089131 6.54648113250732  6.30542411925864 6.0925669670105  7.50041002900151 6.09206104278564  C 8.69618614253112 6.09198617935181  9.84928938568792 6.54593944549561  10.735662932464 7.36571407318115  C 10.8555490684831 7.48205900192261  11.0444012429057 7.47953653335571  11.1612683713051 7.36002969741821  C 11.1612683713051 7.36002969741821  12.2953414174819 6.18970012664795  12.2953414174819 6.18970012664795  C 12.3550638441744 6.1283130645752  12.3882020242278 6.04503583908081  12.3873409166774 5.95850038528442  C 12.3864788761828 5.87196493148804  12.3516903177366 5.78939342498779  12.2907578623411 5.72925901412964  C 9.59157193084196 3.16485047340393  5.41153943825933 3.16485047340393  2.71235373999627 5.72925901412964  C 2.65138303388621 5.78939247131348  2.61659657456454 5.87200546264648  2.61579657486309 5.95856904983521  C 2.61499634192556 6.04513263702393  2.64824950735878 6.12840175628662  2.70809764829009 6.18970012664795  C 2.70809764829009 6.18970012664795  3.84184393074046 7.36002969741821  3.84184393074046 7.36002969741821  C 3.95871059266777 7.47953653335571  4.14756276709028 7.48205900192261  4.26744890310945 7.36571407318115  Z M 9.67066787800149 8.42670154571533  C 9.73369945797804 8.48491764068604  9.77041827809464 8.56711959838867  9.77215262147074 8.65389823913574  C 9.77388789779111 8.7406759262085  9.74048662745689 8.82433986663818  9.67983498828315 8.88513660430908  C 9.67983498828315 8.88513660430908  7.71812330052542 10.9071311950684  7.71812330052542 10.9071311950684  C 7.66061754939054 10.9665565490723  7.58221524628702 11  7.50041002900151 11  C 7.41860434524386 11  7.34020250861248 10.9665565490723  7.28269629100547 10.9071311950684  C 7.28269629100547 10.9071311950684  5.32065760628521 8.88513660430908  5.32065760628521 8.88513660430908  C 5.26004701665884 8.82429504394531  5.22670358886863 8.74060440063477  5.22850090598217 8.6538257598877  C 5.23029822309571 8.56704711914063  5.2670762851727 8.48487091064453  5.33015171352939 8.42670154571533  C 6.58297410314669 7.34443044662476  8.41784595485632 7.34443044662476  9.67066787800149 8.42670154571533  Z " fill-rule="nonzero" fill="#000000" stroke="none" transform="matrix(1 0 0 1 641 159 )" />
  </g>
</svg>